<?xml version="1.0" standalone="no"?>
<!DOCTYPE svg PUBLIC "-//W3C//DTD SVG 20010904//EN"
 "http://www.w3.org/TR/2001/REC-SVG-20010904/DTD/svg10.dtd">
<svg version="1.0" xmlns="http://www.w3.org/2000/svg"
 width="927.000000pt" height="259.000000pt" viewBox="0 0 927.000000 259.000000"
 preserveAspectRatio="xMidYMid meet">
<metadata>
Created by potrace 1.15, written by Peter Selinger 2001-2017
</metadata>
<g transform="translate(0.000000,259.000000) scale(0.100000,-0.100000)"
fill="#000000" stroke="none">
<path d="M4015 2367 c-107 -51 -158 -151 -191 -372 -17 -118 -26 -145 -49
-145 -12 0 -15 16 -15 78 0 92 16 152 59 221 17 28 33 61 37 75 8 35 -20 82
-57 95 -62 22 -108 12 -157 -33 -21 -19 -35 -21 -155 -21 -124 0 -136 -2 -188
-28 -125 -61 -230 -214 -237 -348 -5 -77 8 -126 49 -186 36 -52 105 -88 150
-78 36 8 97 65 120 113 16 32 16 32 12 -45 -1 -43 -4 -136 -7 -208 -4 -151
-20 -206 -68 -231 -41 -21 -53 -14 -72 43 -19 56 -33 75 -63 91 -57 31 -120 0
-169 -83 -41 -71 -46 -102 -25 -151 26 -58 85 -99 171 -118 89 -21 111 -20
206 4 190 49 322 189 373 396 l20 79 0 -50 c3 -176 129 -306 285 -293 65 5
151 45 205 93 l42 38 22 -21 c29 -28 89 -52 126 -52 51 0 138 39 189 86 l50
44 31 -29 c82 -77 196 -65 325 34 l47 36 29 -30 c17 -16 52 -37 79 -46 41 -13
57 -14 97 -4 63 15 115 41 159 80 l35 31 25 -30 c14 -17 46 -38 70 -48 80 -30
167 -7 276 72 l46 33 46 -44 c90 -86 203 -85 330 5 l57 39 43 -42 c44 -45 98
-67 161 -67 45 0 127 31 171 64 18 14 37 26 42 26 4 -1 17 -15 28 -32 50 -78
154 -93 263 -37 l69 36 12 -33 c19 -51 53 -60 168 -41 63 11 103 22 115 34 11
12 25 56 37 123 23 128 30 147 70 185 l32 29 -15 -39 c-107 -297 -105 -290
-89 -323 8 -16 27 -35 42 -41 36 -16 211 0 244 22 17 11 39 55 76 154 29 76
61 147 72 158 19 19 19 18 -1 -30 -12 -27 -28 -79 -36 -114 -29 -124 18 -214
129 -246 72 -21 128 -10 234 45 l72 37 12 -29 c6 -16 32 -47 57 -68 98 -87
258 -93 384 -14 35 23 38 23 83 7 59 -20 128 -13 191 18 55 27 72 54 81 127 5
41 2 52 -19 76 -31 36 -67 37 -113 2 l-35 -27 34 68 c19 37 44 97 55 132 48
147 13 218 -126 261 -223 69 -483 -40 -584 -245 -29 -60 -68 -105 -90 -105 -5
0 6 31 25 68 79 156 91 257 41 333 -52 79 -146 92 -259 35 -65 -32 -72 -34
-81 -18 -5 9 -27 34 -47 54 -53 52 -105 59 -198 26 -63 -23 -69 -23 -73 -7 -3
9 -17 25 -32 35 -24 16 -38 17 -141 8 -97 -9 -117 -13 -138 -33 -31 -29 -120
-203 -141 -275 -13 -43 -25 -63 -56 -87 l-39 -31 34 94 c18 51 50 132 70 181
43 104 45 135 11 167 -35 33 -103 32 -171 -3 l-51 -26 -34 25 c-114 84 -312
41 -467 -101 -37 -33 -53 -43 -49 -30 35 120 29 156 -29 177 -19 7 -33 17 -31
23 40 109 48 147 37 175 -21 50 -55 56 -177 31 -58 -11 -116 -27 -129 -36 -14
-9 -31 -42 -49 -97 -31 -93 -40 -108 -64 -108 -30 0 -58 -43 -74 -112 -14 -64
-14 -70 4 -105 18 -35 18 -39 1 -101 -17 -65 -43 -96 -110 -131 -23 -12 -24
-12 -17 21 4 18 29 107 56 198 55 183 54 207 -2 231 -25 10 -47 8 -135 -11
-58 -13 -116 -31 -128 -41 -18 -14 -34 -58 -71 -188 -41 -149 -51 -173 -81
-202 -34 -33 -34 -33 -34 -8 0 37 27 153 60 266 26 86 29 107 19 125 -29 54
-54 58 -184 24 -102 -26 -130 -39 -144 -64 -14 -26 -69 -238 -77 -297 -6 -49
-26 -76 -78 -106 -18 -11 -18 -8 -12 32 4 24 23 113 42 197 40 171 38 200 -16
222 -40 17 -244 -43 -271 -80 -11 -14 -33 -94 -53 -187 -27 -127 -41 -171 -62
-198 -14 -19 -29 -35 -32 -35 -11 0 8 151 33 267 23 103 26 127 16 151 -23 54
-49 57 -177 17 -65 -21 -123 -45 -133 -57 -26 -27 -61 -187 -76 -339 -5 -53
-12 -73 -36 -102 -17 -21 -34 -37 -38 -37 -5 0 -11 31 -13 68 -6 86 -44 172
-98 222 l-39 36 20 58 c10 32 24 99 30 147 7 49 15 89 19 89 4 0 21 -7 38 -16
68 -33 131 24 162 148 15 60 -4 107 -60 144 -58 39 -129 43 -195 11z m132 -62
c42 -18 53 -30 53 -62 0 -31 -37 -113 -52 -113 -6 0 -24 12 -39 26 -60 57
-110 4 -129 -135 -16 -119 -34 -180 -69 -228 l-30 -42 35 -11 c51 -17 120 -87
133 -135 6 -22 11 -68 11 -103 0 -37 6 -75 15 -92 13 -26 21 -30 56 -30 38 0
47 6 105 65 60 61 64 68 64 111 0 57 26 236 43 293 12 43 12 43 102 72 50 16
93 29 96 29 3 0 -4 -43 -17 -97 -45 -193 -54 -332 -23 -369 22 -27 67 -16 115
28 63 58 77 90 114 271 l33 157 66 19 c108 32 121 34 121 21 0 -7 -16 -79 -35
-161 -47 -198 -52 -251 -31 -284 28 -42 76 -29 172 49 l51 41 16 98 c9 54 26
134 38 177 l21 77 96 26 c53 14 98 24 100 23 1 -2 -11 -50 -28 -107 -40 -134
-62 -264 -54 -312 4 -24 14 -43 29 -53 22 -14 27 -14 60 1 19 10 55 39 78 65
40 44 47 60 88 210 24 89 46 165 49 169 8 11 190 49 190 39 0 -5 -18 -68 -41
-141 -77 -251 -83 -309 -32 -328 32 -12 85 11 168 73 55 41 61 49 72 99 7 30
21 85 32 123 l20 68 -30 -6 c-28 -5 -31 -4 -26 17 3 12 9 39 12 59 6 34 10 37
44 40 l36 3 34 107 35 107 93 17 c52 9 96 14 99 11 4 -3 -10 -54 -30 -114 -20
-59 -36 -112 -36 -117 0 -4 25 -5 56 -1 l57 7 -7 -37 c-15 -79 -20 -85 -78
-85 -29 0 -58 -4 -64 -8 -16 -10 -75 -197 -81 -259 -5 -46 -3 -54 21 -78 22
-22 32 -25 59 -20 76 17 167 86 167 128 0 41 60 147 115 202 65 65 142 110
227 132 56 15 71 15 109 4 25 -7 58 -28 75 -47 l32 -34 75 35 c77 36 134 46
124 23 -154 -382 -171 -449 -113 -464 30 -7 61 6 131 58 54 40 62 50 74 98 8
30 38 102 68 161 l53 108 53 5 c87 9 147 14 147 12 0 -1 -17 -38 -39 -81 -63
-131 -62 -134 16 -71 143 117 265 155 320 100 24 -24 25 -31 21 -95 -3 -38 -4
-69 -2 -69 1 0 38 25 81 56 99 71 122 83 177 90 41 6 48 4 77 -25 29 -30 31
-36 27 -89 -3 -43 -18 -87 -62 -182 -110 -232 -83 -272 101 -152 40 26 73 52
73 57 0 34 63 136 109 177 120 108 263 139 428 92 66 -18 88 -47 78 -101 -11
-59 -61 -181 -105 -257 -22 -37 -40 -70 -40 -72 0 -8 65 -44 81 -44 8 0 41 15
72 34 l56 34 -6 -32 c-6 -38 -33 -62 -81 -76 -53 -14 -63 -13 -117 15 l-49 24
-33 -25 c-97 -74 -221 -90 -305 -41 -53 31 -88 81 -95 137 -3 22 -7 40 -8 40
-2 0 -44 -24 -94 -54 -148 -87 -238 -99 -293 -36 -48 53 -39 112 49 309 44 99
53 125 42 132 -27 18 -95 -14 -185 -87 -37 -30 -47 -48 -95 -177 l-53 -145
-60 -6 c-105 -11 -129 -8 -121 11 25 60 145 420 145 435 0 10 -7 18 -17 18
-42 0 -197 -118 -223 -170 -18 -37 -50 -163 -50 -202 0 -40 -16 -50 -94 -62
l-75 -12 -3 84 -3 84 -67 -51 c-140 -106 -211 -125 -268 -73 -25 21 -33 41
-43 95 l-12 67 -55 -56 c-96 -98 -177 -134 -252 -113 -43 11 -106 78 -115 119
-3 17 -7 30 -10 30 -2 0 -32 -23 -66 -52 -168 -140 -305 -131 -350 24 l-12 39
-54 -46 c-151 -129 -249 -161 -311 -102 -26 23 -50 77 -50 108 0 19 -12 11
-69 -45 -84 -81 -163 -121 -223 -113 -58 8 -85 36 -112 121 -6 18 -11 15 -49
-21 -85 -81 -133 -114 -183 -129 -46 -13 -57 -13 -87 0 -38 15 -62 46 -81 101
l-12 35 -58 -65 c-72 -82 -143 -125 -207 -125 -56 0 -88 22 -114 79 l-18 41
-66 -68 c-78 -81 -139 -113 -214 -114 -61 -1 -103 18 -140 61 -35 42 -44 78
-56 208 -12 133 -30 177 -67 170 -26 -5 -54 15 -54 38 0 20 28 45 51 45 42 0
86 27 103 65 10 21 27 93 37 160 10 67 27 147 39 177 24 65 77 124 123 137 44
13 43 13 84 -4z m-367 -62 c2 -2 -4 -19 -14 -36 -78 -133 -86 -177 -85 -457 2
-239 -10 -322 -58 -420 -37 -76 -118 -154 -200 -193 -62 -29 -76 -32 -168 -32
-88 0 -105 3 -145 25 -61 34 -72 67 -41 125 48 91 83 96 107 16 18 -63 58
-101 106 -101 77 0 133 51 163 150 12 40 18 105 20 240 3 125 9 204 20 245 18
69 68 161 125 234 22 28 40 52 40 55 0 2 -28 -8 -62 -21 -55 -23 -68 -24 -137
-17 -42 5 -89 8 -106 6 -102 -9 -136 -136 -59 -222 19 -21 34 -45 34 -53 0
-24 -59 -87 -82 -87 -31 0 -85 61 -98 110 -33 122 57 293 188 357 55 27 62 28
189 25 l133 -3 37 35 c29 27 44 34 63 29 14 -3 27 -8 30 -10z m-352 -260 l52
-6 -17 -26 c-9 -14 -27 -54 -39 -89 -18 -54 -23 -60 -29 -41 -4 12 -23 37 -41
56 -36 35 -45 78 -22 101 14 14 23 14 96 5z m2908 -158 c-14 -26 -28 -63 -32
-82 -5 -25 -18 -43 -47 -64 -22 -16 -44 -29 -49 -29 -15 0 -8 54 17 131 l25
75 53 10 c28 5 53 9 55 8 1 -1 -9 -23 -22 -49z"/>
<path d="M6715 1956 c-73 -44 -149 -176 -161 -280 -6 -50 -4 -57 20 -81 57
-57 144 -11 221 115 36 59 65 146 65 192 0 38 -40 78 -77 78 -15 0 -46 -11
-68 -24z m65 -83 c0 -59 -100 -223 -136 -223 -38 0 12 140 76 213 39 44 60 48
60 10z"/>
<path d="M8665 1746 c-86 -52 -147 -175 -149 -299 -1 -75 0 -80 28 -104 24
-20 37 -24 68 -20 50 7 112 53 102 76 -4 9 -14 41 -22 72 -25 100 18 218 97
265 17 10 31 22 31 26 0 4 -26 8 -57 8 -43 0 -68 -6 -98 -24z"/>
<path d="M2430 1903 c-8 -3 -28 -17 -44 -31 -26 -21 -36 -23 -78 -18 -78 11
-112 -17 -123 -99 -4 -27 -11 -67 -17 -87 -16 -53 3 -92 53 -112 22 -9 47 -16
57 -16 10 -1 1 -9 -21 -21 -59 -31 -67 -61 -67 -250 0 -134 -3 -166 -17 -190
-10 -16 -21 -29 -25 -29 -4 0 -8 89 -8 198 0 193 -1 199 -22 219 -13 11 -30
23 -38 25 -32 10 -87 -15 -136 -64 -52 -50 -52 -50 -89 -38 -149 49 -357 -113
-436 -340 -17 -50 -22 -89 -23 -171 -1 -101 -2 -107 -31 -145 -29 -38 -30 -38
-33 -14 -14 116 -86 224 -171 260 -29 12 -31 15 -24 44 4 17 6 89 5 160 -3
112 -2 128 11 118 20 -17 61 -18 91 -3 51 28 84 178 52 239 -21 41 -87 75
-146 75 -89 0 -182 -75 -217 -177 -15 -43 -18 -80 -16 -233 3 -171 2 -183 -16
-193 -18 -9 -21 -5 -32 48 -20 87 -16 187 9 260 12 34 22 70 22 80 0 30 -29
61 -70 73 -54 16 -121 -9 -150 -57 -23 -36 -24 -37 -139 -52 -86 -12 -181 -55
-228 -104 -85 -88 -141 -238 -130 -346 12 -115 96 -220 192 -238 68 -12 128
41 158 142 l14 48 6 -65 c4 -35 18 -116 33 -179 33 -147 31 -245 -5 -284 -36
-39 -56 -33 -95 28 -42 66 -84 85 -139 63 -39 -17 -69 -60 -91 -135 -20 -69
-12 -106 33 -151 66 -66 184 -80 310 -37 217 73 349 260 352 497 l1 74 17 -55
c25 -77 45 -113 87 -154 39 -38 126 -76 173 -76 41 0 120 29 169 62 39 27 115
112 124 139 3 8 12 7 33 -4 17 -8 49 -20 73 -26 85 -23 191 31 263 135 l30 44
26 -20 c78 -61 184 -41 268 52 22 23 47 54 55 67 l16 23 38 -26 c85 -57 160
-44 246 42 64 65 151 203 152 241 1 34 -20 101 -39 123 -37 42 -104 28 -130
-28 -17 -35 -18 -35 -24 -13 -4 13 -7 95 -8 182 -1 150 -8 191 -33 208 -6 4 3
26 19 49 25 38 28 53 28 120 0 85 -14 122 -52 139 -26 12 -30 12 -53 4z m35
-118 c5 -34 2 -55 -12 -82 -28 -57 -63 -77 -145 -81 l-71 -4 7 38 c4 22 10 58
13 80 l5 42 69 4 c55 3 74 8 91 26 12 12 25 22 29 22 4 0 10 -20 14 -45z
m-1271 -255 c38 -14 47 -40 36 -101 -6 -29 -14 -57 -19 -62 -4 -4 -24 1 -43
13 -40 23 -78 16 -94 -17 -5 -10 -9 -90 -9 -178 0 -142 -2 -165 -21 -202 l-21
-42 50 -11 c100 -21 154 -80 178 -190 22 -107 56 -137 117 -106 33 17 58 48
90 112 17 34 20 52 15 121 -5 65 -2 94 15 150 37 120 126 234 221 283 53 26
130 27 162 1 l24 -20 65 64 c36 34 75 66 87 69 l22 7 3 -224 c3 -243 6 -257
57 -257 31 0 52 20 105 100 l36 55 -6 101 c-4 55 -4 134 0 175 l7 74 83 43
c45 23 85 42 88 42 4 0 8 -96 10 -213 3 -183 5 -217 21 -240 9 -15 26 -27 35
-27 22 0 60 40 94 98 27 46 31 46 42 -1 6 -24 -2 -43 -39 -102 -56 -91 -126
-165 -157 -166 -66 -3 -107 21 -135 81 -10 22 -20 40 -24 40 -3 0 -31 -41 -63
-90 -65 -102 -107 -139 -164 -147 -55 -7 -88 18 -124 92 -26 55 -29 58 -35 35
-15 -55 -85 -180 -118 -209 -42 -37 -101 -56 -148 -47 -19 4 -55 24 -80 46
l-45 40 -42 -70 c-72 -122 -148 -179 -238 -180 -104 0 -154 53 -205 219 -44
140 -71 178 -113 159 -23 -11 -28 -10 -40 7 -25 34 -16 51 48 84 17 9 41 29
52 44 20 27 21 40 18 202 -2 102 1 189 7 212 29 105 114 164 195 133z m-374
-141 c0 -6 -10 -42 -21 -81 -29 -93 -22 -194 25 -393 74 -309 64 -454 -38
-593 -75 -102 -197 -164 -321 -165 -111 0 -155 32 -141 106 8 42 42 97 60 97
8 0 28 -19 44 -42 60 -87 94 -100 162 -66 100 51 120 178 65 408 -40 164 -40
295 -1 400 16 41 39 97 53 123 l24 48 -51 -35 c-58 -40 -105 -56 -170 -57 -67
0 -111 -19 -137 -58 -43 -63 -21 -141 54 -192 36 -25 43 -35 37 -52 -27 -92
-78 -111 -142 -53 -49 45 -66 94 -60 182 5 93 45 179 110 239 60 57 92 71 198
85 111 14 133 24 164 71 21 31 33 39 56 39 17 0 30 -5 30 -11z m-255 -366 c-7
-27 -17 -70 -21 -97 -6 -43 -8 -47 -18 -28 -6 11 -30 34 -53 51 -36 26 -43 36
-43 66 0 41 1 41 132 53 15 2 16 -2 3 -45z"/>
<path d="M1742 1240 c-92 -56 -132 -330 -60 -407 27 -29 76 -30 110 -3 59 46
101 226 79 332 -9 41 -20 64 -38 78 -32 25 -49 25 -91 0z m58 -140 c0 -92 -17
-165 -45 -198 l-23 -27 -7 39 c-9 45 0 163 16 203 13 35 39 64 50 57 5 -3 9
-36 9 -74z"/>
</g>
</svg>
